<?xml version="1.0" standalone="no"?><!DOCTYPE svg PUBLIC "-//W3C//DTD SVG 1.1//EN" "http://www.w3.org/Graphics/SVG/1.1/DTD/svg11.dtd"><svg t="1769939523932" class="icon" viewBox="0 0 1024 1024" version="1.1" xmlns="http://www.w3.org/2000/svg" p-id="13361" xmlns:xlink="http://www.w3.org/1999/xlink" width="200" height="200"><path d="M944 112v800a32 32 0 0 1-32 32H368a32 32 0 0 1-14.56-3.52A32 32 0 0 1 336 912V112a32 32 0 0 1 32-32h544a32 32 0 0 1 8.96 1.28A32 32 0 0 1 944 112z" fill="#C2CDE7" p-id="13362"></path><path d="M952.96 375.04L944 384 419.52 908.48h-66.08A32 32 0 0 1 336 880v-112l608-608zM934.08 99.04L336 696.96V592L848 80h72l0.96 1.28 13.12 17.76zM768 80L336 512v-64L704 80h64z" fill="#CED9ED" p-id="13363"></path><path d="M944 936.96a16 16 0 0 1-16 16H352a16 16 0 0 1-16-16 64 64 0 0 1 64-64h480a64 64 0 0 1 64 64z" fill="#ACB7D0" p-id="13364"></path><path d="M488 192l19.84 36.16L544 248l-36.16 19.84L488 304l-19.84-36.16L432 248l36.16-19.84L488 192zM800 642.56l13.6 25.12 25.12 13.6-25.12 13.76L800 720l-13.6-24.96-25.12-13.76 25.12-13.6 13.6-25.12zM490.4 720l9.28 16.96 17.12 9.44-17.12 9.28-9.28 17.12-9.28-17.12-17.12-9.28 17.12-9.44 9.28-16.96z" fill="#EDF0F4" p-id="13365"></path><path d="M400 832a16 16 0 0 0-16 16v32a16 16 0 0 0 32 0v-32a16 16 0 0 0-16-16zM480 832a16 16 0 0 0-16 16v32a16 16 0 0 0 32 0v-32a16 16 0 0 0-16-16zM544 848v32a16 16 0 0 0 32 0v-32a16 16 0 0 0-32 0zM640 896a16 16 0 0 0 16-16v-32a16 16 0 0 0-32 0v32a16 16 0 0 0 16 16zM720 896a16 16 0 0 0 16-16v-32a16 16 0 0 0-32 0v32a16 16 0 0 0 16 16zM800 896a16 16 0 0 0 16-16v-32a16 16 0 0 0-32 0v32a16 16 0 0 0 16 16zM880 896a16 16 0 0 0 16-16v-32a16 16 0 0 0-32 0v32a16 16 0 0 0 16 16z" fill="#8D6C9F" p-id="13366"></path><path d="M960 112a48 48 0 0 0-48-48H368a48 48 0 0 0-48 48v800a48 48 0 0 0 48 48h544a48 48 0 0 0 48-48z m-32 800a16 16 0 0 1-16 16H368a16 16 0 0 1-16-16V112a16 16 0 0 1 16-16h544a16 16 0 0 1 16 16z" fill="#8D6C9F" p-id="13367"></path><path d="M112 464h496l-64-64 64-64 176 176-176 176-64-64 64-64H112v-96z" fill="#FAEFDE" p-id="13368"></path><path d="M795.36 500.64l-176-176a16 16 0 0 0-22.56 0l-64 64a16 16 0 0 0 0 22.56l36.64 36.8H112a16 16 0 0 0-16 16v96a16 16 0 0 0 16 16h457.44l-36.64 36.64a16 16 0 0 0 0 22.56l64 64a16 16 0 0 0 22.56 0l176-176a16 16 0 0 0 0-22.56zM608 665.44L566.56 624l52.64-52.64A16 16 0 0 0 608 544H128v-64h480a16 16 0 0 0 11.36-27.36L566.56 400 608 358.56 761.44 512z" fill="#8D6C9F" p-id="13369"></path></svg>